<svg id="svg" version="1.1" xmlns="http://www.w3.org/2000/svg" xmlns:xlink="http://www.w3.org/1999/xlink" width="400" height="402.95566502463055" viewBox="0, 0, 400,402.95566502463055"><g id="svgg"><path id="path0" d="M234.236 8.956 C 222.635 11.662,215.588 20.793,216.077 32.486 C 216.926 52.777,241.116 61.884,255.603 47.366 C 256.857 46.110,257.882 44.914,257.882 44.709 C 257.882 44.503,257.965 44.335,258.067 44.334 C 258.168 44.334,258.552 43.752,258.920 43.041 C 266.052 29.269,259.719 13.587,245.320 9.363 C 243.012 8.686,236.431 8.444,234.236 8.956 M186.305 17.953 C 175.703 20.988,175.494 36.443,186.013 39.501 C 191.871 41.204,198.057 38.250,200.019 32.813 C 203.195 24.008,195.245 15.394,186.305 17.953 M137.438 25.758 C 137.100 25.818,136.189 25.982,135.414 26.122 C 120.648 28.788,112.527 44.536,118.449 59.021 C 124.496 73.813,145.054 77.629,156.744 66.128 C 157.573 65.313,158.442 64.371,158.674 64.035 C 158.907 63.699,159.408 62.980,159.788 62.438 C 166.791 52.456,163.760 36.519,153.571 29.754 C 149.120 26.799,141.788 24.982,137.438 25.758 M282.402 33.777 C 267.926 35.653,266.198 56.772,280.162 61.152 C 290.999 64.552,301.093 54.851,298.173 43.842 C 297.424 41.019,294.086 36.207,292.877 36.207 C 292.731 36.207,292.611 36.111,292.611 35.994 C 292.611 35.877,291.974 35.498,291.195 35.152 C 288.214 33.826,285.407 33.387,282.402 33.777 M71.552 41.300 C 48.854 44.148,34.593 66.746,41.659 88.670 C 43.791 95.285,47.513 100.755,52.992 105.325 C 54.028 106.190,54.963 106.897,55.069 106.897 C 55.176 106.897,55.493 107.109,55.772 107.369 C 56.652 108.187,61.594 110.591,64.162 111.450 C 76.500 115.578,90.605 112.823,100.097 104.433 C 102.283 102.501,105.160 99.208,105.908 97.783 C 106.086 97.445,106.313 97.112,106.412 97.044 C 106.893 96.717,109.480 91.305,110.217 89.084 C 114.072 77.476,111.727 63.365,104.501 54.685 C 96.244 44.765,83.898 39.750,71.552 41.300 M192.611 54.812 C 188.047 55.534,179.604 58.861,179.105 60.135 C 179.060 60.251,178.912 60.345,178.777 60.345 C 178.351 60.345,176.311 62.086,174.101 64.335 C 163.105 75.527,161.620 93.885,170.671 106.756 C 172.002 108.650,175.842 112.757,177.094 113.626 C 193.244 124.842,212.356 122.632,224.063 108.196 C 231.641 98.851,233.144 84.316,227.712 72.906 C 221.544 59.951,207.124 52.517,192.611 54.812 M135.922 89.156 C 132.865 90.191,128.571 93.348,128.571 94.561 C 128.571 94.707,128.475 94.828,128.358 94.828 C 128.241 94.828,127.793 95.613,127.364 96.574 C 124.905 102.072,125.444 108.378,128.745 112.735 C 129.718 114.019,131.795 116.010,132.163 116.010 C 132.332 116.010,132.508 116.097,132.553 116.204 C 132.993 117.241,137.796 118.581,141.010 118.562 C 152.452 118.495,159.398 107.151,154.487 96.552 C 154.141 95.807,153.783 95.142,153.690 95.074 C 153.598 95.006,153.478 94.816,153.424 94.651 C 153.369 94.486,152.613 93.622,151.742 92.731 C 147.863 88.762,141.399 87.301,135.922 89.156 M29.744 96.311 C 17.933 97.731,11.486 110.017,16.693 121.182 C 22.115 132.810,40.084 133.453,46.599 122.253 C 53.912 109.680,44.104 94.584,29.744 96.311 M78.695 119.935 C 57.652 123.398,55.366 152.595,75.616 159.261 C 80.016 160.709,86.282 160.227,90.798 158.094 C 103.730 151.984,105.931 133.789,94.883 124.323 C 94.449 123.950,93.995 123.645,93.875 123.645 C 93.755 123.645,93.514 123.473,93.339 123.263 C 91.580 121.143,83.085 119.212,78.695 119.935 M204.565 123.656 C 201.995 124.060,198.545 125.357,196.441 126.710 C 194.428 128.004,190.394 132.259,190.394 133.088 C 190.394 133.224,190.242 133.511,190.057 133.724 C 189.357 134.532,188.143 138.297,187.772 140.812 C 185.263 157.830,203.575 169.696,218.592 160.785 C 220.388 159.719,224.384 155.924,224.384 155.285 C 224.384 155.088,224.477 154.926,224.590 154.926 C 225.894 154.926,227.919 147.244,227.770 142.857 C 227.631 138.744,226.027 133.527,224.516 132.273 C 224.308 132.101,224.138 131.824,224.138 131.658 C 224.138 131.174,220.578 127.811,218.902 126.711 C 215.019 124.163,209.214 122.926,204.565 123.656 M138.793 132.865 C 133.780 133.620,126.107 136.096,124.414 137.506 C 124.194 137.688,123.488 138.108,122.845 138.438 C 122.201 138.768,121.675 139.122,121.675 139.224 C 121.675 139.326,121.530 139.409,121.352 139.409 C 121.174 139.409,120.814 139.606,120.551 139.847 C 120.289 140.087,119.686 140.555,119.212 140.885 C 116.421 142.830,112.539 146.905,110.412 150.123 C 109.696 151.207,109.027 152.204,108.926 152.340 C 106.459 155.647,103.795 163.954,103.188 170.230 C 102.334 179.080,105.671 192.367,109.885 196.890 C 110.138 197.161,110.345 197.458,110.345 197.550 C 110.345 197.641,110.650 198.101,111.022 198.571 C 111.395 199.042,111.921 199.743,112.192 200.128 C 119.250 210.172,135.465 216.675,149.403 215.051 C 159.677 213.854,171.024 207.693,176.601 200.283 C 176.940 199.833,177.328 199.336,177.463 199.178 C 184.842 190.592,187.851 173.582,184.082 161.766 C 182.914 158.104,179.920 151.679,179.058 150.985 C 178.974 150.917,178.841 150.689,178.764 150.477 C 178.366 149.395,173.231 143.685,171.291 142.168 C 164.894 137.167,159.044 134.510,151.108 133.003 C 148.781 132.561,141.364 132.478,138.793 132.865 M26.669 140.152 C 21.876 141.191,16.375 143.745,14.000 146.035 C 13.776 146.251,12.917 147.077,12.092 147.870 C 0.317 159.188,1.031 179.554,13.576 190.242 C 20.993 196.560,33.012 198.824,41.667 195.532 C 42.389 195.257,43.202 194.966,43.473 194.886 C 44.241 194.657,47.573 192.865,48.444 192.213 C 48.875 191.890,49.292 191.626,49.370 191.626 C 49.448 191.626,49.871 191.327,50.310 190.961 C 63.032 180.370,64.716 162.379,54.199 149.420 C 48.233 142.069,36.324 138.059,26.669 140.152 M76.232 176.123 C 70.380 177.573,67.361 181.429,67.372 187.438 C 67.399 201.327,87.227 203.101,89.912 189.454 C 90.411 186.920,89.171 180.788,88.159 180.788 C 88.034 180.788,87.931 180.663,87.931 180.509 C 87.931 180.214,85.895 178.079,85.614 178.079 C 85.523 178.079,85.148 177.859,84.781 177.590 C 83.063 176.334,78.525 175.555,76.232 176.123 M157.759 217.602 C 147.610 219.939,141.251 227.968,141.267 238.424 C 141.275 243.673,142.142 246.511,145.135 251.087 C 146.437 253.078,150.315 256.230,152.956 257.442 C 162.630 261.886,172.993 259.331,179.647 250.862 C 183.885 245.468,184.637 235.896,181.372 228.923 C 177.426 220.497,166.965 215.482,157.759 217.602 " stroke="none" fill="#fc8304" fill-rule="evenodd"></path><path id="path1" d="M327.671 54.696 C 308.884 58.643,297.970 77.672,303.948 96.059 C 313.294 124.804,354.808 125.053,364.419 96.422 C 372.354 72.785,351.934 49.598,327.671 54.696 M263.177 76.725 C 253.355 78.581,247.238 86.410,247.600 96.661 C 248.481 121.635,285.566 121.648,286.391 96.675 C 286.823 83.584,276.019 74.298,263.177 76.725 M371.675 107.779 C 357.863 111.423,357.972 131.685,371.822 135.228 C 384.547 138.482,394.247 125.522,387.794 113.887 C 385.027 108.898,377.805 106.162,371.675 107.779 M323.645 130.199 C 311.526 133.453,311.462 150.925,323.558 154.043 C 334.428 156.846,342.787 146.068,337.644 135.880 C 335.331 131.298,329.048 128.749,323.645 130.199 M258.614 135.950 C 239.253 139.472,226.465 154.965,226.483 174.877 C 226.499 192.487,236.516 206.708,252.683 212.073 C 285.585 222.991,315.051 191.305,301.932 159.113 C 295.210 142.619,276.614 132.675,258.614 135.950 M371.305 146.559 C 357.396 148.705,349.257 162.249,353.739 175.793 C 360.050 194.861,388.215 195.391,395.101 176.571 C 401.054 160.303,388.103 143.968,371.305 146.559 M325.862 175.226 C 307.777 179.025,309.629 205.503,328.071 206.812 C 340.837 207.719,349.067 194.742,343.168 183.010 C 340.252 177.210,332.663 173.797,325.862 175.226 M203.448 191.959 C 184.947 196.873,184.118 223.054,202.271 229.139 C 205.707 230.290,211.319 230.297,214.696 229.154 C 232.877 223.003,232.123 196.670,213.632 191.979 C 210.425 191.166,206.465 191.158,203.448 191.959 M368.124 209.143 C 362.983 210.349,359.464 215.415,359.934 220.936 C 361.135 235.029,382.266 234.292,382.266 220.157 C 382.266 212.497,375.683 207.370,368.124 209.143 M323.309 215.161 C 311.019 217.603,303.593 226.736,303.593 239.409 C 303.593 254.378,314.231 264.565,329.237 263.968 C 347.184 263.254,358.117 244.563,350.148 228.220 C 345.417 218.517,334.109 213.015,323.309 215.161 M248.541 223.404 C 240.115 225.182,235.334 231.075,235.355 239.655 C 235.400 258.331,261.115 262.803,267.218 245.197 C 271.410 233.105,260.867 220.803,248.541 223.404 M285.961 252.112 C 272.195 255.728,272.378 275.788,286.207 279.087 C 292.599 280.612,299.530 277.478,302.072 271.912 C 307.187 260.712,297.684 249.033,285.961 252.112 M199.754 255.441 C 191.607 257.021,188.563 267.694,194.559 273.660 C 199.832 278.908,209.430 277.050,212.094 270.267 C 215.391 261.873,208.608 253.725,199.754 255.441 M241.256 269.849 C 232.127 272.018,226.984 277.484,225.815 286.260 C 223.778 301.561,239.430 312.374,253.670 305.504 C 266.696 299.219,267.091 279.165,254.329 272.048 C 251.042 270.215,244.412 269.100,241.256 269.849 M285.375 295.457 C 265.765 299.353,256.746 320.929,267.440 338.365 C 268.249 339.684,272.373 346.915,276.603 354.433 C 286.169 371.433,290.237 378.648,293.545 384.483 C 294.966 386.989,296.441 389.654,296.823 390.405 C 301.039 398.697,312.633 398.261,315.274 389.711 C 316.623 385.343,316.119 383.882,308.905 371.248 C 302.930 360.783,302.457 359.801,301.948 356.794 C 301.133 351.984,302.573 348.734,306.844 345.741 C 323.657 333.960,321.959 307.230,303.818 298.091 C 298.481 295.403,291.014 294.336,285.375 295.457 " stroke="none" fill="#041c54" fill-rule="evenodd"></path><path id="path2" d="" stroke="none" fill="#100502c" fill-rule="evenodd"></path><path id="path3" d="" stroke="none" fill="#100502c" fill-rule="evenodd"></path><path id="path4" d="" stroke="none" fill="#100502c" fill-rule="evenodd"></path></g></svg>